<mxfile host="app.diagrams.net" modified="2020-12-04T22:07:26.036Z" agent="5.0 (Macintosh; Intel Mac OS X 10_15_6) AppleWebKit/605.1.15 (KHTML, like Gecko) Version/14.0.1 Safari/605.1.15" etag="0Vxi6zi1PfqAuIk7Zxey" version="13.10.8" type="github">
  <diagram id="RcybXoDZJoYCDfinM7sL" name="Page-1">
    <mxGraphModel dx="707" dy="759" grid="1" gridSize="10" guides="1" tooltips="1" connect="1" arrows="1" fold="1" page="1" pageScale="1" pageWidth="827" pageHeight="1169" math="0" shadow="0">
      <root>
        <mxCell id="0" />
        <mxCell id="1" parent="0" />
        <mxCell id="yAxmA-hLNBu4ljDOKUg5-1" value="" style="shape=folder;fontStyle=1;spacingTop=10;tabWidth=125;tabHeight=40;tabPosition=left;html=1;fontSize=10;" vertex="1" parent="1">
          <mxGeometry x="175" y="40" width="605" height="740" as="geometry" />
        </mxCell>
        <mxCell id="yAxmA-hLNBu4ljDOKUg5-2" value="&lt;div&gt;&lt;font style=&quot;font-size: 11px&quot;&gt;&lt;b&gt;Gestione Inventario&lt;/b&gt;&lt;/font&gt;&lt;/div&gt;" style="text;html=1;strokeColor=none;fillColor=none;align=left;verticalAlign=middle;whiteSpace=wrap;rounded=0;" vertex="1" parent="1">
          <mxGeometry x="180" y="50" width="107.5" height="30" as="geometry" />
        </mxCell>
        <mxCell id="a_w7ONJ3W2yyLTA47ird-16" value="&lt;div&gt;&lt;span style=&quot;font-size: 14px&quot;&gt;Magazziniere&lt;/span&gt;&lt;/div&gt;" style="shape=umlActor;verticalLabelPosition=bottom;verticalAlign=top;html=1;outlineConnect=0;" parent="1" vertex="1">
          <mxGeometry x="30" y="167.56" width="30" height="60" as="geometry" />
        </mxCell>
        <mxCell id="a_w7ONJ3W2yyLTA47ird-17" value="&lt;span style=&quot;font-size: 14px&quot;&gt;Responsabile&lt;br&gt;Vendite&lt;/span&gt;" style="shape=umlActor;verticalLabelPosition=bottom;verticalAlign=top;html=1;outlineConnect=0;" parent="1" vertex="1">
          <mxGeometry x="30" y="467.75" width="30" height="60" as="geometry" />
        </mxCell>
        <mxCell id="a_w7ONJ3W2yyLTA47ird-27" value="" style="endArrow=none;html=1;entryX=0;entryY=0.5;entryDx=0;entryDy=0;" parent="1" target="yAxmA-hLNBu4ljDOKUg5-7" edge="1">
          <mxGeometry width="50" height="50" relative="1" as="geometry">
            <mxPoint x="70" y="180" as="sourcePoint" />
            <mxPoint x="250" y="170" as="targetPoint" />
          </mxGeometry>
        </mxCell>
        <mxCell id="a_w7ONJ3W2yyLTA47ird-28" value="" style="endArrow=none;html=1;entryX=0;entryY=0.5;entryDx=0;entryDy=0;" parent="1" target="yAxmA-hLNBu4ljDOKUg5-9" edge="1">
          <mxGeometry width="50" height="50" relative="1" as="geometry">
            <mxPoint x="70" y="190" as="sourcePoint" />
            <mxPoint x="250" y="290" as="targetPoint" />
          </mxGeometry>
        </mxCell>
        <mxCell id="a_w7ONJ3W2yyLTA47ird-29" value="" style="shape=partialRectangle;whiteSpace=wrap;html=1;bottom=1;right=1;left=1;top=0;fillColor=none;routingCenterX=-0.5;rotation=-90;" parent="1" vertex="1">
          <mxGeometry x="-156" y="489" width="504" height="17.5" as="geometry" />
        </mxCell>
        <mxCell id="a_w7ONJ3W2yyLTA47ird-35" value="" style="endArrow=none;html=1;exitX=0;exitY=0.5;exitDx=0;exitDy=0;" parent="1" source="yAxmA-hLNBu4ljDOKUg5-3" edge="1">
          <mxGeometry width="50" height="50" relative="1" as="geometry">
            <mxPoint x="250" y="420" as="sourcePoint" />
            <mxPoint x="70" y="198" as="targetPoint" />
          </mxGeometry>
        </mxCell>
        <mxCell id="a_w7ONJ3W2yyLTA47ird-37" value="" style="endArrow=none;html=1;exitX=0.5;exitY=1;exitDx=0;exitDy=0;entryX=0;entryY=0.5;entryDx=0;entryDy=0;" parent="1" source="a_w7ONJ3W2yyLTA47ird-29" target="yAxmA-hLNBu4ljDOKUg5-4" edge="1">
          <mxGeometry width="50" height="50" relative="1" as="geometry">
            <mxPoint x="400" y="460" as="sourcePoint" />
            <mxPoint x="254.75" y="550" as="targetPoint" />
          </mxGeometry>
        </mxCell>
        <mxCell id="a_w7ONJ3W2yyLTA47ird-38" value="" style="endArrow=none;html=1;exitX=0.5;exitY=1;exitDx=0;exitDy=0;entryX=0;entryY=0.5;entryDx=0;entryDy=0;" parent="1" source="a_w7ONJ3W2yyLTA47ird-29" target="yAxmA-hLNBu4ljDOKUg5-5" edge="1">
          <mxGeometry width="50" height="50" relative="1" as="geometry">
            <mxPoint x="160" y="400" as="sourcePoint" />
            <mxPoint x="254.75" y="695" as="targetPoint" />
          </mxGeometry>
        </mxCell>
        <mxCell id="a_w7ONJ3W2yyLTA47ird-40" value="&lt;span style=&quot;font-size: 14px&quot;&gt;Direttore&lt;br&gt;&amp;nbsp;Generale&lt;/span&gt;" style="shape=umlActor;verticalLabelPosition=bottom;verticalAlign=top;html=1;outlineConnect=0;" parent="1" vertex="1">
          <mxGeometry x="30" y="680" width="30" height="60" as="geometry" />
        </mxCell>
        <mxCell id="a_w7ONJ3W2yyLTA47ird-41" value="" style="endArrow=none;html=1;exitX=0.5;exitY=1;exitDx=0;exitDy=0;" parent="1" source="a_w7ONJ3W2yyLTA47ird-29" target="a_w7ONJ3W2yyLTA47ird-17" edge="1">
          <mxGeometry width="50" height="50" relative="1" as="geometry">
            <mxPoint x="150" y="510" as="sourcePoint" />
            <mxPoint x="200" y="460" as="targetPoint" />
          </mxGeometry>
        </mxCell>
        <mxCell id="a_w7ONJ3W2yyLTA47ird-4" value="" style="endArrow=classic;html=1;dashed=1;exitX=0;exitY=0.5;exitDx=0;exitDy=0;verticalAlign=bottom;entryX=1;entryY=0.5;entryDx=0;entryDy=0;" parent="1" source="yAxmA-hLNBu4ljDOKUg5-11" target="yAxmA-hLNBu4ljDOKUg5-7" edge="1">
          <mxGeometry width="50" height="50" relative="1" as="geometry">
            <mxPoint x="450" y="290" as="sourcePoint" />
            <mxPoint x="460" y="150" as="targetPoint" />
          </mxGeometry>
        </mxCell>
        <mxCell id="a_w7ONJ3W2yyLTA47ird-5" value="&amp;nbsp;&amp;lt;&amp;lt;Extends&amp;gt;&amp;gt;&amp;nbsp;" style="edgeLabel;html=1;align=center;verticalAlign=middle;resizable=0;points=[];" parent="a_w7ONJ3W2yyLTA47ird-4" vertex="1" connectable="0">
          <mxGeometry x="-0.0125" y="1" relative="1" as="geometry">
            <mxPoint y="-3" as="offset" />
          </mxGeometry>
        </mxCell>
        <mxCell id="yAxmA-hLNBu4ljDOKUg5-3" value="Rimozione prodotto inventario" style="ellipse;whiteSpace=wrap;html=1;fontSize=10;" vertex="1" parent="1">
          <mxGeometry x="290" y="350" width="180" height="95.5" as="geometry" />
        </mxCell>
        <mxCell id="yAxmA-hLNBu4ljDOKUg5-4" value="Ricerca del prodotto &amp;nbsp;nell&#39;inventario" style="ellipse;whiteSpace=wrap;html=1;fontSize=10;" vertex="1" parent="1">
          <mxGeometry x="414" y="480" width="180" height="95.5" as="geometry" />
        </mxCell>
        <mxCell id="yAxmA-hLNBu4ljDOKUg5-5" value="Visualizzazione lista prodotti nell&#39;inventario" style="ellipse;whiteSpace=wrap;html=1;fontSize=10;" vertex="1" parent="1">
          <mxGeometry x="420" y="640" width="180" height="95.5" as="geometry" />
        </mxCell>
        <mxCell id="yAxmA-hLNBu4ljDOKUg5-7" value="Aggiunta prodotto &lt;br&gt;inventario&lt;br&gt;&lt;br&gt;&lt;br&gt;&lt;b&gt;Extension Point&lt;br&gt;&lt;/b&gt;Campi del prodotto non&lt;br&gt;&amp;nbsp;compilati" style="ellipse;whiteSpace=wrap;html=1;fontSize=10;" vertex="1" parent="1">
          <mxGeometry x="287.5" y="100" width="180" height="95.5" as="geometry" />
        </mxCell>
        <mxCell id="yAxmA-hLNBu4ljDOKUg5-8" value="" style="endArrow=none;html=1;fontSize=10;exitX=0;exitY=0.5;exitDx=0;exitDy=0;entryX=1;entryY=0.5;entryDx=0;entryDy=0;" edge="1" parent="1" source="yAxmA-hLNBu4ljDOKUg5-7" target="yAxmA-hLNBu4ljDOKUg5-7">
          <mxGeometry width="50" height="50" relative="1" as="geometry">
            <mxPoint x="532.5" y="277.75" as="sourcePoint" />
            <mxPoint x="468.5" y="156.75" as="targetPoint" />
          </mxGeometry>
        </mxCell>
        <mxCell id="yAxmA-hLNBu4ljDOKUg5-9" value="Modifica del prodottoi&lt;br&gt;&lt;br&gt;&lt;br&gt;&lt;b&gt;Extension Point&lt;br&gt;&lt;/b&gt;Formato dati non valido" style="ellipse;whiteSpace=wrap;html=1;fontSize=10;" vertex="1" parent="1">
          <mxGeometry x="287.5" y="220" width="180" height="95.5" as="geometry" />
        </mxCell>
        <mxCell id="yAxmA-hLNBu4ljDOKUg5-10" value="" style="endArrow=none;html=1;fontSize=10;exitX=0;exitY=0.5;exitDx=0;exitDy=0;entryX=1;entryY=0.5;entryDx=0;entryDy=0;" edge="1" parent="1" source="yAxmA-hLNBu4ljDOKUg5-9" target="yAxmA-hLNBu4ljDOKUg5-9">
          <mxGeometry width="50" height="50" relative="1" as="geometry">
            <mxPoint x="532.5" y="397.75" as="sourcePoint" />
            <mxPoint x="468.5" y="276.75" as="targetPoint" />
          </mxGeometry>
        </mxCell>
        <mxCell id="yAxmA-hLNBu4ljDOKUg5-11" value="Prodotto errato" style="ellipse;whiteSpace=wrap;html=1;fontSize=10;" vertex="1" parent="1">
          <mxGeometry x="590" y="160" width="180" height="95.5" as="geometry" />
        </mxCell>
        <mxCell id="yAxmA-hLNBu4ljDOKUg5-12" value="" style="endArrow=classic;html=1;dashed=1;exitX=0;exitY=0.5;exitDx=0;exitDy=0;entryX=1;entryY=0.5;entryDx=0;entryDy=0;verticalAlign=bottom;" edge="1" parent="1" source="yAxmA-hLNBu4ljDOKUg5-11" target="yAxmA-hLNBu4ljDOKUg5-9">
          <mxGeometry width="50" height="50" relative="1" as="geometry">
            <mxPoint x="460" y="300" as="sourcePoint" />
            <mxPoint x="340" y="300" as="targetPoint" />
          </mxGeometry>
        </mxCell>
        <mxCell id="yAxmA-hLNBu4ljDOKUg5-13" value="&amp;nbsp;&amp;lt;&amp;lt;Extends&amp;gt;&amp;gt;&amp;nbsp;" style="edgeLabel;html=1;align=center;verticalAlign=middle;resizable=0;points=[];" vertex="1" connectable="0" parent="yAxmA-hLNBu4ljDOKUg5-12">
          <mxGeometry x="-0.0125" y="1" relative="1" as="geometry">
            <mxPoint y="-3" as="offset" />
          </mxGeometry>
        </mxCell>
      </root>
    </mxGraphModel>
  </diagram>
</mxfile>
